<?xml version="1.0" encoding="utf-8"?>
<!-- Generator: Adobe Illustrator 17.1.0, SVG Export Plug-In . SVG Version: 6.00 Build 0)  -->
<!DOCTYPE svg PUBLIC "-//W3C//DTD SVG 1.1//EN" "http://www.w3.org/Graphics/SVG/1.1/DTD/svg11.dtd">
<svg version="1.1" id="Layer_1" xmlns="http://www.w3.org/2000/svg" xmlns:xlink="http://www.w3.org/1999/xlink" x="0px" y="0px"
	 viewBox="0 0 88 31" enable-background="new 0 0 88 31" xml:space="preserve">
<g>
	<path fill-rule="evenodd" clip-rule="evenodd" fill="#CCCCCC" d="M44.852,8.189c-0.488,0.264-0.625,0.685-0.621,1.22
		c0.016,2.601,0.007,5.201,0.008,7.801c0,0.599,0.043,0.646,0.639,0.718c0.188,0.023,0.376,0.037,0.609,0.059
		c-0.238,0.207-0.438,0.36-0.732,0.354c-0.672-0.016-1.344-0.012-2.016-0.018c-0.078,0-0.156-0.014-0.227-0.02
		c-0.006-0.03-0.01-0.042-0.008-0.045c0.362-0.359,0.346-0.815,0.344-1.277c-0.007-2.63-0.002-5.26-0.003-7.89
		c0-0.359-0.001-0.36-0.368-0.361c-0.203-0.001-0.407-0.001-0.611-0.001c-0.003-0.02-0.006-0.04-0.009-0.061
		c0.318-0.159,0.636-0.319,0.954-0.479C43.491,8.189,44.172,8.189,44.852,8.189z"/>
	<path fill-rule="evenodd" clip-rule="evenodd" fill="#CCCCCC" d="M18.487,9.662c-0.078,0.091-0.133,0.167-0.199,0.231
		c-0.281,0.273-0.566,0.541-0.851,0.811c-0.171,0.162-0.312,0.202-0.604,0.166c0.074-0.127,0.139-0.25,0.218-0.362
		c0.079-0.113,0.061-0.189-0.038-0.283c-1.217-1.166-2.652-1.507-4.237-1c-1.573,0.504-2.423,1.689-2.633,3.287
		c-0.269,2.043,0.368,3.789,2.04,5.043c1.379,1.035,2.941,1.229,4.588,0.695c0.17-0.055,0.242-0.14,0.238-0.332
		c-0.014-0.598-0.013-1.197-0.002-1.795c0.003-0.209-0.072-0.271-0.272-0.259c-0.596,0.037-1.192,0.061-1.798,0.058
		c0.457-0.211,0.82-0.605,1.383-0.592c0.798,0.019,1.597,0,2.395-0.003c0.08,0,0.16,0,0.296,0c-0.099,0.12-0.152,0.218-0.234,0.279
		c-0.214,0.162-0.259,0.384-0.259,0.628c-0.004,0.629-0.016,1.257-0.004,1.885c0.005,0.212-0.064,0.291-0.269,0.339
		c-1.159,0.269-2.315,0.549-3.508,0.632c-1.267,0.088-2.504-0.03-3.628-0.679c-1.649-0.953-2.456-2.441-2.538-4.308
		c-0.121-2.752,1.776-5.042,4.526-5.501c1.728-0.287,3.387-0.055,4.944,0.774C18.188,9.455,18.324,9.557,18.487,9.662z"/>
	<path fill-rule="evenodd" clip-rule="evenodd" fill="#CCCCCC" d="M38.589,18.323c-0.373-0.436-0.514-0.905-0.295-1.469
		c-0.158,0-0.272-0.001-0.387,0c-1.141,0.01-2.029-0.615-2.318-1.63c-0.27-0.948,0.128-2.021,0.977-2.64
		c0.601-0.439,1.283-0.639,2.014-0.655c1.035-0.024,2.07-0.017,3.104-0.023c0.029,0,0.058,0.006,0.117,0.013
		c-0.454,0.411-0.954,0.614-1.566,0.51c-0.021,0.044-0.043,0.087-0.063,0.13c0.085,0.046,0.185,0.076,0.253,0.141
		c0.879,0.833,1.049,2.398-0.084,3.354c-0.186,0.157-0.383,0.307-0.549,0.483c-0.372,0.398-0.344,0.774,0.072,1.123
		c0.283,0.237,0.574,0.465,0.86,0.699c1.435,1.175,0.999,2.892-0.24,3.732c-0.583,0.396-1.231,0.6-1.925,0.676
		c-0.727,0.08-1.447,0.059-2.151-0.161c-0.504-0.157-0.95-0.406-1.274-0.839c-0.521-0.697-0.451-1.621,0.179-2.291
		c0.56-0.594,1.286-0.848,2.062-0.986C37.76,18.422,38.149,18.383,38.589,18.323z M38.543,22.197
		c0.413-0.002,0.911-0.055,1.364-0.309c0.839-0.471,0.996-1.503,0.33-2.196c-0.153-0.159-0.338-0.288-0.494-0.443
		c-0.426-0.423-0.921-0.561-1.515-0.454c-0.509,0.092-1.023,0.158-1.471,0.444c-0.489,0.312-0.737,0.751-0.695,1.34
		c0.04,0.552,0.345,0.93,0.797,1.206C37.346,22.082,37.889,22.174,38.543,22.197z M39.87,14.92c-0.051-0.737-0.25-1.507-0.85-2.116
		c-0.374-0.382-0.83-0.504-1.342-0.344c-0.528,0.165-0.818,0.554-0.883,1.089c-0.1,0.833,0.094,1.604,0.594,2.283
		c0.254,0.345,0.591,0.584,1.035,0.617C39.278,16.514,39.868,15.921,39.87,14.92z"/>
	<path fill-rule="evenodd" clip-rule="evenodd" fill="#CCCCCC" d="M23.1,18.616c-1.824-0.029-3.212-1.186-3.457-2.979
		c-0.178-1.312,0.324-2.38,1.375-3.172c1.318-0.993,3.293-0.991,4.482,0.012c1.067,0.899,1.47,2.068,1.149,3.422
		c-0.327,1.378-1.229,2.243-2.608,2.586C23.735,18.56,23.415,18.574,23.1,18.616z M21.009,14.382
		c0.047,1.099,0.258,2.08,0.887,2.924c0.486,0.651,1.133,0.972,1.953,0.774c0.816-0.196,1.285-0.755,1.391-1.566
		c0.064-0.49,0.051-1.003-0.009-1.496c-0.095-0.778-0.346-1.515-0.863-2.127c-0.501-0.595-1.14-0.831-1.903-0.626
		c-0.76,0.205-1.233,0.704-1.387,1.481C21.032,13.975,21.025,14.214,21.009,14.382z"/>
	<path fill-rule="evenodd" clip-rule="evenodd" fill="#CCCCCC" d="M34.708,14.819c-0.006,2.032-1.398,3.523-3.188,3.675
		c-0.982,0.083-1.886-0.099-2.666-0.726c-1.833-1.473-1.613-4.393,0.435-5.55c1.349-0.762,2.733-0.8,4.039,0.099
		C34.268,12.964,34.682,13.925,34.708,14.819z M33.321,15.751c-0.035-1.062-0.372-2.171-0.908-2.861
		c-0.487-0.629-1.123-0.911-1.91-0.726c-0.783,0.185-1.299,0.681-1.44,1.481c-0.071,0.401-0.075,0.826-0.037,1.233
		c0.088,0.934,0.349,1.818,0.986,2.541c0.476,0.538,1.077,0.775,1.793,0.607c0.72-0.168,1.178-0.633,1.371-1.338
		C33.259,16.385,33.274,16.064,33.321,15.751z"/>
	<path fill-rule="evenodd" clip-rule="evenodd" fill="#CCCCCC" d="M51.558,17.384c-0.604,0.821-1.381,1.176-2.322,1.233
		c-2.177,0.131-3.354-1.5-3.539-3.083c-0.222-1.899,0.815-3.401,2.61-3.765c0.922-0.188,1.782-0.039,2.496,0.634
		c0.279,0.265,0.456,0.595,0.583,0.956c0.044,0.123,0.02,0.191-0.102,0.24c-1.049,0.421-2.093,0.854-3.148,1.261
		c-0.199,0.077-0.435,0.06-0.656,0.079c-0.153,0.015-0.308,0.018-0.514,0.028c0.229,1.07,0.683,1.958,1.631,2.516
		C49.574,18.057,50.554,17.89,51.558,17.384z M46.964,14.893c0.095-0.037,0.156-0.06,0.217-0.086c0.785-0.34,1.57-0.682,2.356-1.022
		c0.46-0.198,0.53-0.397,0.286-0.84c-0.05-0.09-0.111-0.176-0.18-0.252c-0.712-0.792-1.953-0.613-2.475,0.356
		C46.859,13.627,46.887,14.241,46.964,14.893z"/>
	<path fill-rule="evenodd" clip-rule="evenodd" fill="#CCCCCC" d="M55.498,12.857c0,0.249,0,0.466,0,0.731
		c0.506-0.527,1.052-0.871,1.755-0.866c0.707,0.006,1.291,0.24,1.612,1.001c0.145-0.163,0.254-0.314,0.392-0.433
		c0.579-0.503,1.25-0.676,2.002-0.515c0.692,0.147,1.092,0.607,1.155,1.355c0.029,0.338,0.022,0.68,0.023,1.019
		c0.003,1.042,0.003,2.084,0.003,3.126c0,0.065-0.009,0.13-0.013,0.185c-0.029,0.016-0.042,0.026-0.056,0.028
		c-0.576,0.068-0.576,0.068-0.576-0.503c0-1.079,0-2.158,0-3.237c0-0.037,0-0.073,0-0.11c-0.003-1.088-0.711-1.582-1.745-1.214
		c-0.443,0.157-0.774,0.458-1.02,0.849c-0.051,0.08-0.06,0.196-0.06,0.296c-0.004,1.219-0.008,2.439,0.002,3.658
		c0.002,0.211-0.052,0.285-0.271,0.274c-0.438-0.021-0.395,0.053-0.396-0.39c-0.002-1.131,0-2.261,0-3.392
		c0-0.037-0.002-0.074,0-0.111c0.066-1.27-0.874-1.4-1.656-1.205c-0.499,0.124-0.844,0.475-1.104,0.903
		c-0.045,0.074-0.046,0.184-0.046,0.276c-0.003,1.22-0.008,2.438,0.002,3.658c0.002,0.207-0.062,0.267-0.262,0.259
		c-0.461-0.018-0.401,0.047-0.402-0.403c-0.002-1.647-0.001-3.296-0.001-4.943c0-0.294,0.001-0.295,0.287-0.296
		C55.24,12.857,55.356,12.857,55.498,12.857z"/>
	<path fill-rule="evenodd" clip-rule="evenodd" fill="#CCCCCC" d="M69.737,20.46c0-0.128,0-0.209,0-0.29
		c0-2.341-0.001-4.683,0-7.024c0-0.287,0-0.287,0.289-0.288c0.008,0,0.016,0,0.022,0c0.413,0,0.346-0.004,0.35,0.344
		c0,0.036,0.002,0.073,0.007,0.11c0.002,0.012,0.016,0.022,0.035,0.047c0.086-0.066,0.17-0.134,0.257-0.198
		c0.803-0.595,1.995-0.587,2.726,0.018c0.286,0.236,0.495,0.532,0.619,0.878c0.379,1.06,0.393,2.134,0.021,3.192
		c-0.576,1.639-2.5,1.746-3.5,0.772c-0.041-0.04-0.084-0.077-0.165-0.152c0,0.124,0,0.201,0,0.278c0,0.702-0.003,1.403,0.003,2.106
		c0.001,0.147-0.038,0.22-0.198,0.21C70.057,20.452,69.911,20.46,69.737,20.46z M70.397,15.619c0,0.406-0.007,0.812,0.005,1.218
		c0.003,0.111,0.033,0.239,0.095,0.329c0.308,0.441,0.726,0.73,1.26,0.832c0.733,0.14,1.388-0.186,1.646-0.881
		c0.357-0.961,0.355-1.939-0.029-2.898c-0.154-0.386-0.441-0.659-0.841-0.8c-0.689-0.241-1.581,0.026-2.005,0.618
		c-0.076,0.106-0.12,0.255-0.125,0.385C70.388,14.821,70.397,15.22,70.397,15.619z"/>
	<path fill-rule="evenodd" clip-rule="evenodd" fill="#CCCCCC" d="M68.215,18.499c-0.148,0-0.325,0.012-0.498-0.007
		c-0.056-0.007-0.126-0.089-0.146-0.15c-0.037-0.115-0.042-0.241-0.066-0.397c-0.358,0.348-0.757,0.564-1.216,0.647
		c-0.689,0.126-1.352,0.051-1.909-0.406c-1.044-0.857-0.742-2.615,0.527-3.078c0.786-0.286,1.584-0.217,2.375,0.005
		c0.07,0.019,0.139,0.043,0.269,0.083c-0.035-0.382-0.041-0.734-0.106-1.075c-0.068-0.354-0.315-0.609-0.663-0.675
		c-0.386-0.071-0.792-0.113-1.181-0.075c-0.572,0.055-0.925,0.421-1.078,1.01c-0.208-0.032-0.413-0.064-0.641-0.1
		c0.14-0.651,0.485-1.104,1.07-1.348c0.761-0.315,1.534-0.288,2.287,0.024c0.544,0.226,0.82,0.679,0.9,1.252
		c0.025,0.175,0.034,0.354,0.035,0.53c0.004,0.643-0.003,1.285,0.003,1.928C68.183,17.27,68.201,17.873,68.215,18.499z
		 M67.521,16.466c0-0.17,0.009-0.341-0.005-0.51c-0.004-0.061-0.048-0.153-0.096-0.17c-0.76-0.273-1.532-0.401-2.315-0.11
		c-0.364,0.135-0.583,0.413-0.657,0.801c-0.151,0.79,0.26,1.396,1.052,1.534c0.588,0.104,1.107-0.057,1.575-0.423
		C67.447,17.298,67.622,16.939,67.521,16.466z"/>
	<path fill-rule="evenodd" clip-rule="evenodd" fill="#CCCCCC" d="M78.699,14.575c-0.023-0.1-0.04-0.185-0.061-0.269
		c-0.13-0.527-0.454-0.858-0.992-0.948c-0.391-0.066-0.783-0.058-1.153,0.108c-0.599,0.269-0.69,0.999-0.15,1.376
		c0.236,0.165,0.527,0.262,0.804,0.356c0.434,0.147,0.884,0.245,1.312,0.402c0.621,0.229,0.978,0.679,0.978,1.36
		c0.001,0.68-0.308,1.188-0.938,1.449c-0.796,0.331-1.602,0.342-2.375-0.078c-0.578-0.314-0.88-0.826-0.972-1.504
		c0.228-0.032,0.435-0.062,0.646-0.092c0.023,0.071,0.041,0.119,0.054,0.168c0.165,0.65,0.561,1.019,1.225,1.111
		c0.408,0.057,0.812,0.024,1.189-0.164c0.335-0.168,0.503-0.447,0.512-0.819c0.009-0.362-0.155-0.645-0.479-0.784
		c-0.364-0.156-0.753-0.254-1.129-0.385c-0.382-0.133-0.779-0.239-1.138-0.423c-0.52-0.265-0.717-0.748-0.693-1.314
		c0.022-0.556,0.315-0.949,0.813-1.173c0.677-0.305,1.378-0.327,2.072-0.068c0.663,0.248,0.97,0.784,1.095,1.449
		c0.02,0.106-0.004,0.173-0.123,0.185C79.036,14.535,78.876,14.555,78.699,14.575z"/>
</g>
</svg>
