<?xml version="1.0" encoding="utf-8"?>
<!-- Generator: Adobe Illustrator 18.1.0, SVG Export Plug-In . SVG Version: 6.00 Build 0)  -->
<svg version="1.1" id="Layer_1" xmlns="http://www.w3.org/2000/svg" xmlns:xlink="http://www.w3.org/1999/xlink" x="0px" y="0px"
	 viewBox="0 0 191.6 43.1" enable-background="new 0 0 191.6 43.1" xml:space="preserve">
<g>
	<path fill-rule="evenodd" clip-rule="evenodd" fill="#FFFFFF" d="M130.7,28.5c-0.1-0.2,0-0.6,0.1-0.9c0.6-1.5,2.3-1.8,3.7-2.2
		c-0.5-0.5-1.3-0.6-2-0.7c-0.3,0-0.7,0-1-0.1c-0.3,0-0.4,0.8-0.4,1.1c-0.2,0.7-0.3,1.5-0.8,2.1c-0.4,0.5-0.9,0.8-1.4,1.1
		c-0.8,0.4-1.9,0.6-2.8,0.1c-1-0.5-1.2-1.7-1-2.8c-0.5,0.9-1.2,1.8-2,2.4c-0.4,0.3-0.9,0.5-1.4,0.6c-0.6,0.1-1.1-0.1-1.7-0.2
		c-1-0.2-1.5,0.8-2.2,1.3c-0.9,0.8-2.1,1.4-3.3,1.5c-1.5,0.1-3-0.3-4-1.6c-0.9-1.2-1.1-2.8-1.1-4.2c0-1.2,0.2-2.5,0.6-3.6
		c0.1-0.3,0.2-0.5,0.3-0.8c0.1-0.2,0-0.2-0.2-0.3c-0.4-0.2-0.9-0.4-1.3-0.7c-0.4-0.2-2-1.1-1.4-1.8c0.4-0.4,1.1-0.5,1.6-0.4
		c0.8,0.2,1.5,0.6,2.2,1c0.9-1.8,2.5-3.6,4.7-3.4c0.8,0.1,1.5,0.4,1.8,1.2c0.3,0.8,0.1,1.8-0.3,2.5c-1,1.5-3,2-4.7,2l-0.1,0
		c-0.4,1.3-0.7,2.8-0.5,4.2c0.1,0.8,0.3,1.5,0.9,2c0.6,0.5,1.3,1,2.2,0.8c0.9-0.2,1.6-0.8,2.2-1.4c0.6-0.6,1.1-1.4,1.4-2.2
		c0.2-0.5,0.3-1.1,0.5-1.6c0.2-0.6,0.4-1.5,1-1.7c0.7-0.3,1.6-0.4,1.8,0.6c0.2,0.9-0.4,1.8-0.5,2.7c0,0.6,0.2,1.4,0.9,1.4
		c0.8,0,1.3-0.8,1.6-1.5c0.5-1.3,0.5-3.4,1.9-4.1c0.6-0.3,1.5-0.2,1.7,0.6c0.2,0.7-0.1,1.5-0.3,2.2c-0.2,0.8-0.3,1.6,0,2.4
		c0.3,0.7,0.9,1.2,1.6,0.5c0.5-0.5,0.8-1.3,0.6-2.1c-0.2-0.5-0.5-0.9-0.6-1.4c-0.2-0.7,0.1-1.6,0.4-2.3c0.4-0.8,1-1.5,1.8-1.8
		c1.1-0.5,3.2-0.5,4,0.6c0.4,0.6,0.1,1.4-0.4,1.9c-0.6,0.6-1.3,1-1.9,1.6c0.6,0.1,1.3,0.1,1.9,0.2c0.3,0.1,0.6,0.2,0.9,0.3
		c0.2,0.1,0.4,0.3,0.7,0.2c1-0.1,1.5-1.7,1.9-2.4c-0.5-0.1-1.1,0.5-1.6,0.1c-0.5-0.4,0.7-1.1,1-1.2c0.5-0.2,1-0.4,1.3-0.9
		c0.3-0.5,0.4-1.1,0.7-1.6c0.2-0.5,0.5-1.1,0.9-1.4c0.4-0.3,1.1-0.3,1.5-0.1c0.6,0.4,0.1,1.7,0,2.3c1.1-0.2,2.1-0.2,3.2-0.4
		c0.8-0.1,2.5-0.6,2.7,0.1c0.1,0.4,0.1,0.7-0.1,1.1c-0.2,0.4-0.8,0.5-1.3,0.5c-0.8,0-1.3,0.1-2.1,0.1c-0.8,0-1.8,0.1-2.5,0.4
		c-0.3,0.1-0.4,0.3-0.5,0.6c-0.2,0.6-0.3,1.3-0.4,1.9c-0.2,1.1-0.3,2.7,0.5,3.6c0.6,0.7,1.6,0.4,2.3,0c0.7-0.4,1.1-1,1.4-1.7
		c0.3-0.7,0.5-1.4,0.8-2c0.5-0.9,1.3-1.5,2.1-1.9c0.8-0.4,1.7-0.7,2.6-0.6c1,0.2,1.3,1.1,1.3,2c1,0,1.7-0.7,2.5-1.1
		c0.9-0.4,2-0.4,2.3,0.7c0.7-0.6,1.7-0.8,2.5-0.8c0.8,0,1.2,0.5,1.2,1.3c0.6-1.2,2-2.1,3.4-2.1c1.6-0.1,2.1,1.3,2.1,2.6
		c0,1.3-0.3,2.6-0.2,3.9c0.1,0.5,0.2,1,0.7,1.2c0.6,0.4,1.4,0.2,2,0c-1.2-1.2-1.2-3.1-0.7-4.7c0.5-1.6,1.6-3.2,3.1-3.9
		c1-0.4,2.8-0.7,3.5,0.3c0.7,0.9,0.3,2.3,0.1,3.2c-0.5,1.8-1.4,3.6-2.7,5c1.1,0.3,2.2,0.1,2.9-0.8c0.8-1,0.9-2.2,1-3.4
		c0.1-0.8,0.1-1.6,0.2-2.4c0.1-0.5,0.2-1,0.7-1.3c0.8-0.5,1.5,0.3,1.4,1.1c1.2-0.9,4.2-1.6,5,0.2c0.2,0.5,0.2,1.1-0.1,1.5
		c-0.3,0.4-0.6,0.3-1,0.2c-0.8-0.3-1.6-0.6-2.5-0.3c-1.4,0.5-1.5,2.3-1.7,3.5c-0.1,0.8-0.2,1.6-0.6,2.3c-0.2,0.4-0.5,0.8-0.9,1
		c-0.5,0.3-0.9,0-1.4-0.2c-1-0.4-2.1,0-3.1,0.1c-0.5,0-1.1-0.1-1.5-0.3c-0.5,0.2-1.1,0.5-1.6,0.8c-1.8,0.8-4.3,0.5-5-1.6
		c-0.4-1.4-0.1-2.9-0.2-4.4c0-0.3,0-1.2-0.5-1.2c-0.3,0-0.5,0.2-0.6,0.4c-0.4,0.4-0.6,0.9-0.6,1.5c-0.2,0.9-0.1,2.1-0.7,2.8
		c-0.4,0.5-1.5,0.5-1.9,0c-0.3-0.4-0.2-1.2-0.2-1.7c0-0.6,0.1-1.3,0-1.8c-0.2-0.6-0.7-0.5-1.1-0.2c-0.5,0.3-0.8,0.9-0.9,1.5
		c-0.3,1.5,0.1,3-0.2,4.5c-0.2,0.9-0.8,1.7-1.8,1.7c-0.8-0.1-1.1-1-1.2-1.7c-0.2-1.1-0.1-2.1,0-3.2c0.1-0.8,0.2-1.6,0.4-2.4
		c-0.5,0-1.1,0-1.5,0.3c-0.3,0.2-0.4,0.7-0.5,1c-0.3,1.5-0.6,3.2-1.7,4.3c-1,1-2.8,0.9-4,0.2c-1.1-0.6-1-1.9-1.5-2.9
		c-1.6,0.8-2.8,2.7-4.8,2c-2.1-0.7-2.7-2.8-2.4-4.9c-1.7,1.1-0.5,3-1,4.6c-0.5,1.6-2.7,1.8-4.1,1.6c-0.7-0.1-1.3-0.4-1.8-0.9
		C131,29.2,130.8,28.9,130.7,28.5z M113.1,20c1.2-0.2,3.3-0.5,3.3-2.2C114.5,17.6,113.3,18.9,113.1,20z M131.5,22.9
		c0.3-1,1.9-2.1,1.8-2.6c-0.7,0-1.4,0.3-1.8,0.9c-0.2,0.2-0.3,0.5-0.3,0.8c0,0-0.1,0.3,0,0.6C131.2,22.6,131.3,22.9,131.5,22.9
		C131.4,23,131.5,23,131.5,22.9z M149,22.3c0.1,0.8,1.4,0.9,2,0.6C150.6,22.3,149.8,22.1,149,22.3z M172,22.2
		c-1.5,0-1.9,3.5-1.3,4.5C171.5,25.6,173.6,22.3,172,22.2z M148.9,27.8c0.5,0.1,1-0.3,1.4-0.9c0.3-0.5,0.6-1.3,0.4-1.8
		c-0.1-0.4-0.6-0.6-1-0.7c-0.6-0.2-1.2-0.3-1.7-0.5c-0.3,0.6-0.4,1.4-0.4,2.2c0.1,0.6,0.1,1.3,0.9,1.7
		C148.5,27.7,148.6,27.8,148.9,27.8z M132.9,28.4c1.1,0.6,3-0.2,2.2-1.7c-0.6,0.5-1.5,0.6-2.1,1.4C132.9,28.4,132.9,28.4,132.9,28.4
		z"/>
	<path fill-rule="evenodd" clip-rule="evenodd" fill="#FFFFFF" d="M13.5,28.7c-0.2,0-0.4,0-0.5-0.1c-0.6-0.2-1.2-0.5-1.3-0.9
		c-0.1-0.5-0.2-1-0.2-1.6c0-0.6,0.1-1.1,0.2-1.7c0-0.1,0-0.1,0-0.2c0-0.2,0.1-0.3,0-0.5c-0.1-0.1-0.2-0.1-0.3-0.2
		c-0.1,0-0.2,0-0.3,0c-0.1,0-0.3,0-0.4,0c-0.4-0.1-0.4-0.3-0.4-0.4c-0.1-0.6,1.1-1.6,1.6-1.8l0.1-0.1c0.3-0.1,0.4-0.2,0.4-0.6
		c0.1-0.2,0.1-0.5,0.2-0.7c0.1-0.3,0.4-0.7,0.8-1C13.7,19,14,19,14.3,19c0.1,0,0.3,0,0.4,0c0,0,0.1,0,0.2,0.2c0.1,0.3,0.1,1,0,1.2
		l-0.2,0.3l0.3-0.1c0.3-0.1,0.5-0.2,0.8-0.2c0.1,0,0.3-0.1,0.4-0.1c0.1,0,0.1,0,0.2,0c0.5-0.1,1.2-0.2,1.2-0.6
		c0.1-0.9,0.2-1.6,0.4-2.3c0.2-0.9,0.9-2.6,2.3-2.8c0.2,0,0.4,0,0.6,0c0.5,0,0.9,0.1,1.1,0.4c0.4,0.3,0.4,0.6,0.5,1.1
		c0,0.4,0,0.9-0.1,1.4c-0.1,0.8-0.4,1.4-1,2.1c-0.3,0.4-0.7,0.8-0.9,1c-0.5,0.4-0.8,0.8-0.9,0.9l-0.2,0.3l0.4-0.1
		c0.2,0,0.5-0.2,0.8-0.3c0.5-0.2,1-0.5,1.6-0.5c0.2,0,0.3,0,0.5,0.1c0.2,0.1,0.7,0.3,0.9,0.8c0.2,0.6,0.2,1.2,0.3,1.8
		c0,0.1,0,0.2,0,0.3c0,1,0,2.1,0.4,2.5c0.1,0.1,0.2,0.2,0.3,0.2c0.2,0,0.3-0.1,0.5-0.2c0.3-0.2,0.2-0.7,0.2-1.1c0-0.1,0-0.3,0-0.4
		c0-0.7,0.1-1.3,0.2-1.9c0.3-1.1,0.9-1.9,1.8-2.3c0.6-0.3,1.2-0.4,1.7-0.4c0.4,0,0.7,0.1,1,0.2c0.4,0.2,0.7,0.5,0.8,1
		c0.3,1.5-1.5,4-2.4,5l-0.1,0.1l0.2,0.1c0.2,0.1,0.4,0.1,0.6,0.1c0.6,0,1.3-0.4,1.7-1c0.1-0.2,0.2-0.4,0.3-0.6
		c0.3-0.5,0.5-1.1,1.1-1.3c0.2-0.1,0.4-0.1,0.6-0.1c0.2,0,0.4,0,0.6,0.1c0.3,0.1,0.3,0.5,0.3,1c-0.1,0.9-1.2,2-1.6,2.4
		c-0.9,0.9-1.9,1.3-3.1,1.3c-0.7,0-1.3-0.1-2-0.4c-0.4-0.2-0.6-0.4-0.8-0.7c-0.1-0.1-0.1-0.1-0.2-0.2l-0.1-0.1l-0.3,0.3
		c-0.2,0.2-0.4,0.4-0.6,0.5c-0.5,0.4-1.1,0.7-1.6,0.7c-0.2,0-0.4,0-0.5-0.1c-0.8-0.2-1.1-0.5-1.1-1.3c0-0.6,0-1.2,0-1.7
		c0-0.5,0-0.9,0-1.4l0-0.2c0-0.3,0-0.5-0.2-0.7c-0.1-0.1-0.2-0.1-0.4-0.1c0,0-0.1,0-0.2,0c-0.3,0-0.5,0.2-0.7,0.5
		c-0.4,0.5-0.4,1.2-0.5,1.9l0,0.2c0,0.2,0,0.4,0,0.6c0,0.5-0.1,1.1-0.2,1.5c-0.2,0.5-0.6,0.7-1.3,0.7c-0.1,0-0.2,0-0.3,0
		c-0.3,0-0.6-0.1-0.8-0.4c-0.5-0.6-0.2-2,0-2.9c0.1-0.3,0.1-0.6,0.1-0.8c0.1-0.4,0.1-0.8,0.1-1.3c0-0.3,0-0.6,0-0.9l0-0.2
		c0,0-0.2,0-0.2,0c-0.7,0-2.6,0.5-2.8,1.3c-0.1,0.3-0.1,0.6-0.2,0.9c-0.2,0.7-0.3,1.5-0.3,2.3l0,0.2l0.2,0c0.5,0,0.8-0.4,1-0.7
		c0.2-0.2,0.3-0.4,0.5-0.5c0.1-0.1,0.2-0.1,0.3-0.1c0.2,0,0.4,0.1,0.4,0.4c0,0.4-0.3,0.8-0.6,1.2c-0.1,0.1-0.1,0.2-0.2,0.3
		C14.8,28.3,14.2,28.7,13.5,28.7z M28.4,22c-0.5,0-0.9,0.3-1.3,0.8c-0.5,0.7-0.6,1.8-0.3,2.5l0.1,0.2l0.1-0.1c0.8-0.5,2-2.1,1.9-3
		C28.9,22.2,28.7,22.1,28.4,22L28.4,22L28.4,22z M20.4,16.3c-0.2,0-0.3,0.2-0.4,0.6l0,0.1c-0.1,0.4-0.5,1.3-0.6,2.3l0,0.2l0.2,0
		c0.7-0.1,1.4-1.9,1.3-2.6C20.9,16.4,20.6,16.3,20.4,16.3L20.4,16.3L20.4,16.3z"/>
	<g>
		<path fill-rule="evenodd" clip-rule="evenodd" fill="#FFFFFF" d="M61.2,21.5c0,2.9-2.4,8.7-8,9.8c-2.7,0.5-6.1-1.4-6-9.6
			c0-2.7,1.2-7.1,5.1-5.9c4,1.2-2.4,9.2,1,9.7c3.1,0.4-1-8.5,4.8-8.2C58.5,17.3,61.2,17.1,61.2,21.5z"/>
		<path fill-rule="evenodd" clip-rule="evenodd" fill="#FFFFFF" d="M93.3,24.2c0.5,2.2,1.6,3.9,2.5,5.8c0.8-0.3,1.4-0.9,2.5-0.4
			c1,0.7,0.9,1.8,0.7,2.8c-0.3,1.2-1.2,2.3-2.7,2.4c-1.3,0-2.9-0.5-3.6-1.2c-0.3-0.3-0.8-0.9-1.1-1.5c-0.9-1.5-1.7-3.4-2.5-4.9
			C88.6,28,88.6,29,88.4,30c-0.1,0.7-0.3,1.4-0.9,1.6c-1.5,0.4-3.6,0.1-4.1-1.3c-0.2-0.6-0.2-1.5-0.2-2.5c-0.1-3.1-0.1-6.6,0.4-9.6
			c0.1-0.8,0.6-1.7,1.2-2.2c1.2-1,2.5-1.3,4.5-1.5c2.1-0.1,3.5,0.4,4.8,1.4c0.7,0.5,1.1,1.2,1.4,2.1c0.5,1.6,0.2,3.8-0.8,5
			C94.1,23.6,93.8,23.8,93.3,24.2z M88.7,21.2c0,0.7,0.1,1.6,0.3,2c1.7,0.1,3.4-3.5,1.7-4.3C88.9,18.2,88.7,19.5,88.7,21.2z"/>
		<path fill-rule="evenodd" clip-rule="evenodd" fill="#FFFFFF" d="M41.9,17c-1,0.7-1,2.5-0.5,3.5c1.8,0.4,4-0.4,4.6,0.5
			c0.7,0.9,0.9,3.8-0.4,4.6c-1.3,0.8-3,0-4.1-0.3c-0.2,1.3,0.6,2.7,0.5,4.1c-0.1,1.3-1,2.7-2.3,2.9c-1.5,0.3-2.6-0.9-3-1.7
			c-0.4-0.8-1-2.5-1.2-4.5c-0.3-3.3-0.4-8.1,0.4-10.6c0.2-0.6,0.8-2.1,1.8-3.1c0.8-0.9,2.4-1.4,3.4-1.5c1.7-0.2,4.2,0.1,5.1,1.1
			c1,1.2,0.7,3.9-0.2,4.6C45.2,17.4,43.3,17.3,41.9,17z"/>
		<path fill-rule="evenodd" clip-rule="evenodd" fill="#FFFFFF" d="M73.8,18c0.7,0.2,1.1,0.7,1.4,1.5c0.4,1.3-1.5,5.5-0.1,6
			c0.4,0.2,1.2,0.2,1.8-0.1c1.1-0.7-1.9-8.3,0.8-9.5c6.8-2.8,4.9,12,2.6,14.5c-2.1,2.3-7.5,1.3-9.1-0.9c-1.1-1.4-1.3-3.6-1.4-6
			c0-1.1-0.1-2.3,0-3C70.2,18.4,72.3,17.6,73.8,18z"/>
		<path fill-rule="evenodd" clip-rule="evenodd" fill="#FFFFFF" d="M62.6,29.2c-0.6-2-0.5-3.9-0.5-6.6c0-1.1,0.4-4.7-0.3-5.8
			c-1-1.7-4.6-1.2-6-2.6c-1.6-1.6-0.3-3.8,2.3-4.1c0.5-0.1,1.8-0.2,3-0.2c1.5,0,3,0.1,4.4,0.2c2.2,0.1,5.9,0.5,7.2,1.6
			c0.9,0.7,1.2,2.3,1,3.3c-0.1,0.6-0.6,1.4-1,1.7c-1,0.8-3.2,0.2-4.1,1.1c-2.2,2,1.7,11.8-2,12.9C64.7,31.2,63,30.4,62.6,29.2z"/>
		<path fill-rule="evenodd" clip-rule="evenodd" fill="#FFFFFF" d="M101.4,18.9c0,1,2.1,0.1,3.3,0.4c0.5,0.1,1,0.3,1.2,0.7
			c0.5,1.5-0.6,2.5-2,2.7c-1.3,0.2-3.2-0.6-3.1,1.8c1.5,0.6,4.4-1.9,5.5-0.2c0.6,1,0.4,2.8-0.4,3.3c-0.7,0.5-1.4,0.7-2.3,1
			c-0.8,0.3-1.7,0.6-2.5,0.7c-1.8,0.2-4.3-0.7-4.6-2.6c-0.2-1.4-0.2-3.5-0.1-5.5c0.2-2.7-0.2-5.2,1.1-6.6c1.4-1,5-1.1,7-0.5
			c1.1,0.3,2.6,3.1,1.2,4.2c-0.6,0.4-1.8,0.3-2.5,0.3C102.4,18.3,101.3,17.7,101.4,18.9z"/>
	</g>
</g>
</svg>
